<svg viewBox="0 0 184 32" fill="none" xmlns="http://www.w3.org/2000/svg">
<path d="M49.779 10.41C47.794 10.41 46.218 11.14 45.255 12.658V4.94995H42.103V25.387H45.255V17.563C45.255 14.585 46.889 13.359 48.961 13.359C50.946 13.359 52.231 14.526 52.231 16.745V25.387H55.382V16.424C55.382 12.629 53.048 10.41 49.779 10.41ZM60.528 19.431H72.144C72.202 19.022 72.261 18.555 72.261 18.117C72.261 13.913 69.284 10.41 64.935 10.41C60.353 10.41 57.23 13.767 57.23 18.088C57.23 22.468 60.353 25.766 65.168 25.766C68.028 25.766 70.218 24.569 71.56 22.584L68.963 21.066C68.263 22.088 66.949 22.8759 65.198 22.8759C62.863 22.8759 61.024 21.708 60.528 19.431ZM60.498 16.861C60.936 14.672 62.542 13.271 64.906 13.271C66.803 13.271 68.641 14.351 69.079 16.861H60.5H60.498ZM85.777 10.79V12.862C84.667 11.344 82.946 10.41 80.669 10.41C76.699 10.41 73.402 13.738 73.402 18.088C73.402 22.408 76.7 25.766 80.669 25.766C82.946 25.766 84.668 24.832 85.777 23.285V25.387H88.929V10.789H85.777V10.79ZM81.165 22.76C78.539 22.76 76.554 20.8029 76.554 18.088C76.554 15.373 78.539 13.417 81.165 13.417C83.792 13.417 85.777 15.373 85.777 18.088C85.777 20.8029 83.792 22.759 81.165 22.759V22.76ZM103.431 4.94995V12.862C102.322 11.344 100.6 10.41 98.323 10.41C94.354 10.41 91.056 13.738 91.056 18.088C91.056 22.408 94.354 25.766 98.323 25.766C100.6 25.766 102.322 24.832 103.431 23.285V25.387H106.583V4.94995H103.431ZM98.82 22.76C96.193 22.76 94.208 20.8029 94.208 18.088C94.208 15.373 96.193 13.417 98.82 13.417C101.446 13.417 103.431 15.373 103.431 18.088C103.431 20.8029 101.446 22.759 98.82 22.759V22.76ZM109.527 25.387H112.68V4.07495H109.527V25.387ZM118.091 19.431H129.707C129.765 19.022 129.824 18.555 129.824 18.117C129.824 13.913 126.847 10.41 122.498 10.41C117.916 10.41 114.793 13.767 114.793 18.088C114.793 22.468 117.916 25.766 122.731 25.766C125.591 25.766 127.78 24.569 129.123 22.584L126.525 21.066C125.825 22.088 124.512 22.8759 122.76 22.8759C120.426 22.8759 118.587 21.708 118.091 19.431ZM118.061 16.861C118.499 14.672 120.105 13.271 122.469 13.271C124.366 13.271 126.204 14.351 126.642 16.861H118.061ZM134.128 14.818C134.128 13.768 135.121 13.271 136.259 13.271C137.456 13.271 138.477 13.796 139.003 14.935L141.659 13.446C140.637 11.519 138.652 10.41 136.259 10.41C133.282 10.41 130.918 12.132 130.918 14.877C130.918 20.102 138.769 18.643 138.769 21.241C138.769 22.409 137.689 22.8759 136.288 22.8759C134.683 22.8759 133.516 22.088 133.049 20.774L130.334 22.35C131.268 24.452 133.37 25.766 136.288 25.766C139.44 25.766 141.98 24.19 141.98 21.27C141.98 15.87 134.128 17.475 134.128 14.818ZM145.968 14.818C145.968 13.768 146.961 13.271 148.099 13.271C149.295 13.271 150.317 13.796 150.842 14.935L153.498 13.446C152.477 11.519 150.492 10.41 148.099 10.41C145.122 10.41 142.758 12.132 142.758 14.877C142.758 20.102 150.609 18.643 150.609 21.241C150.609 22.409 149.529 22.8759 148.128 22.8759C146.523 22.8759 145.355 22.088 144.888 20.774L142.174 22.35C143.108 24.452 145.209 25.766 148.128 25.766C151.28 25.766 153.819 24.19 153.819 21.27C153.819 15.87 145.968 17.475 145.968 14.818ZM170.01 22.02C172.197 22.02 173.816 20.712 173.816 18.567V11.877H171.856V18.411C171.856 19.377 171.345 20.101 170.01 20.101C168.675 20.101 168.163 19.377 168.163 18.411V11.876H166.218V18.567C166.218 20.712 167.837 22.019 170.01 22.019V22.02ZM175.865 11.876V21.82H177.825V11.876H175.865Z" fill="#111827"/>
<path fill-rule="evenodd" clip-rule="evenodd" d="M177.046 7.10697H166.902C165.826 7.10723 164.794 7.53485 164.033 8.29582C163.272 9.05678 162.844 10.0888 162.844 11.165V21.313C162.844 22.3891 163.272 23.4211 164.033 24.1821C164.794 24.9431 165.826 25.3707 166.902 25.371H177.046C178.122 25.3707 179.154 24.9431 179.915 24.1821C180.676 23.4211 181.104 22.3891 181.104 21.313V11.166C181.104 10.6329 180.999 10.1051 180.795 9.61258C180.592 9.12007 180.293 8.67253 179.916 8.29553C179.539 7.91852 179.092 7.61943 178.599 7.41532C178.107 7.21122 177.579 7.1061 177.046 7.10597V7.10697ZM166.902 5.07697C166.103 5.0771 165.311 5.23467 164.573 5.54069C163.834 5.84671 163.163 6.29519 162.598 6.86051C162.033 7.42584 161.585 8.09694 161.279 8.8355C160.973 9.57405 160.816 10.3656 160.816 11.165V21.313C160.816 22.1123 160.973 22.9039 161.279 23.6424C161.585 24.381 162.033 25.0521 162.598 25.6174C163.163 26.1827 163.834 26.6312 164.573 26.9372C165.311 27.2433 166.103 27.4008 166.902 27.401H177.046C177.845 27.401 178.637 27.2435 179.376 26.9375C180.114 26.6316 180.785 26.1831 181.35 25.6178C181.916 25.0524 182.364 24.3813 182.67 23.6427C182.976 22.904 183.133 22.1124 183.133 21.313V11.166C183.133 10.3664 182.976 9.5747 182.67 8.83596C182.364 8.09722 181.916 7.42596 181.351 6.86051C180.786 6.29507 180.114 5.84653 179.376 5.5405C178.637 5.23448 177.846 5.07697 177.046 5.07697H166.902Z" fill="white"/>
<path fill-rule="evenodd" clip-rule="evenodd" d="M166.902 7.10697H177.046C178.122 7.10723 179.154 7.53485 179.915 8.29582C180.676 9.05678 181.104 10.0888 181.104 11.165V21.313C181.104 22.3891 180.676 23.4211 179.915 24.1821C179.154 24.9431 178.122 25.3707 177.046 25.371H166.902C165.826 25.3707 164.794 24.9431 164.033 24.1821C163.272 23.4211 162.844 22.3891 162.844 21.313V11.166C162.844 10.6329 162.949 10.1051 163.153 9.61258C163.356 9.12007 163.655 8.67253 164.032 8.29553C164.409 7.91852 164.856 7.61943 165.349 7.41532C165.841 7.21122 166.369 7.1061 166.902 7.10597V7.10697ZM160.816 11.165C160.816 10.3656 160.973 9.57405 161.279 8.8355C161.585 8.09694 162.033 7.42584 162.598 6.86051C163.163 6.29519 163.834 5.84671 164.573 5.54069C165.311 5.23467 166.103 5.0771 166.902 5.07697H177.046C177.845 5.07697 178.637 5.23444 179.376 5.54041C180.114 5.84637 180.785 6.29482 181.35 6.86016C181.916 7.4255 182.364 8.09664 182.67 8.83526C182.976 9.57389 183.133 10.3655 183.133 11.165V21.313C183.133 22.1124 182.976 22.904 182.67 23.6427C182.364 24.3813 181.916 25.0524 181.35 25.6178C180.785 26.1831 180.114 26.6316 179.376 26.9375C178.637 27.2435 177.845 27.401 177.046 27.401H166.902C166.103 27.4008 165.311 27.2433 164.573 26.9372C163.834 26.6312 163.163 26.1827 162.598 25.6174C162.033 25.0521 161.585 24.381 161.279 23.6424C160.973 22.9039 160.816 22.1123 160.816 21.313V11.166V11.165Z" fill="white"/>
<path d="M6.495 19.883L26.015 13.365C25.625 10.925 25.347 9.295 25.025 8.051C24.678 6.713 24.403 6.355 24.295 6.231C23.9186 5.80021 23.45 5.45978 22.924 5.235C22.772 5.17 22.346 5.019 20.968 5.102C19.51 5.19 17.596 5.488 14.565 5.968C11.535 6.448 9.622 6.757 8.209 7.123C6.872 7.47 6.513 7.746 6.389 7.854C5.959 8.231 5.619 8.699 5.394 9.225C5.329 9.377 5.178 9.803 5.261 11.182C5.349 12.64 5.647 14.555 6.127 17.586C6.261 18.436 6.382 19.196 6.495 19.883Z" fill="url(#paint0_linear_16_21)"/>
<path fill-rule="evenodd" clip-rule="evenodd" d="M1.11297 18.38C0.184974 12.516 -0.280026 9.58398 0.725974 7.22998C1.25039 6.00226 2.04473 4.9085 3.04997 4.02998C4.97697 2.34698 7.90797 1.88298 13.77 0.953978C19.634 0.0239785 22.565 -0.440022 24.92 0.565978C26.147 1.09057 27.2401 1.88491 28.118 2.88998C29.802 4.81798 30.266 7.74998 31.194 13.615C32.123 19.479 32.587 22.412 31.581 24.765C31.0569 25.9926 30.2629 27.0864 29.258 27.965C27.331 29.649 24.399 30.113 18.536 31.042C12.674 31.971 9.74197 32.435 7.38897 31.429C6.16194 30.9044 5.06888 30.11 4.19097 29.105C2.50697 27.177 2.04297 24.245 1.11397 18.38H1.11297ZM11.454 28.794C13.024 28.699 15.046 28.382 18.039 27.908C21.033 27.434 23.052 27.11 24.576 26.715C26.051 26.332 26.731 25.959 27.17 25.575C27.8158 25.0102 28.3261 24.3071 28.663 23.518C28.893 22.982 29.038 22.22 28.946 20.698C28.851 19.128 28.534 17.105 28.06 14.111C27.586 11.117 27.263 9.09598 26.868 7.57298C26.485 6.09698 26.111 5.41698 25.728 4.97798C25.1636 4.33185 24.4608 3.8212 23.672 3.48398C23.136 3.25398 22.374 3.10898 20.852 3.20098C19.282 3.29598 17.261 3.61298 14.267 4.08698C11.274 4.56198 9.25397 4.88498 7.73097 5.27998C6.25497 5.66298 5.57597 6.03698 5.13697 6.41998C4.49077 6.98471 3.98012 7.68779 3.64297 8.47698C3.41397 9.01298 3.26897 9.77498 3.36097 11.297C3.45597 12.868 3.77197 14.89 4.24697 17.884C4.72097 20.878 5.04397 22.899 5.43897 24.422C5.82197 25.898 6.19497 26.578 6.57897 27.017C7.14339 27.6631 7.84612 28.1737 8.63497 28.511C9.17097 28.741 9.93197 28.886 11.455 28.794H11.454Z" fill="url(#paint1_linear_16_21)"/>
<defs>
<linearGradient id="paint0_linear_16_21" x1="12.69" y1="-4.95668e-07" x2="17.769" y2="31.733" gradientUnits="userSpaceOnUse">
<stop stop-color="#66E3FF"/>
<stop offset="1" stop-color="#7064F9"/>
</linearGradient>
<linearGradient id="paint1_linear_16_21" x1="12.69" y1="-2.1658e-05" x2="17.769" y2="31.733" gradientUnits="userSpaceOnUse">
<stop stop-color="#66E3FF"/>
<stop offset="1" stop-color="#7064F9"/>
</linearGradient>
</defs>
</svg>
